<svg xmlns="http://www.w3.org/2000/svg" width="900" height="480" viewBox="0 0 900 480" role="img" aria-labelledby="title desc">
<title id="title">Hard-margin support vector machine</title>
<desc id="desc">Course diagram redrawn from the source notes.</desc>
<rect width="100%" height="100%" fill="#ffffff" rx="18"/>
<style>text{font-family:Inter,Arial,sans-serif;fill:#17212b}.t{font-size:28px;font-weight:700}.s{font-size:18px}.xs{font-size:15px}.label{font-size:17px;font-weight:600}.dash{stroke-dasharray:8 7}</style>
<text x="450" y="42" class="t" text-anchor="middle">Hard-margin SVM: maximize the geometric margin</text>
<line x1="80" y1="410" x2="840" y2="410" stroke="#17212b" stroke-width="2" />
<line x1="80" y1="410" x2="80" y2="85" stroke="#17212b" stroke-width="2" />
<line x1="190" y1="360" x2="710" y2="120" stroke="#17212b" stroke-width="4" />
<line x1="190" y1="295" x2="710" y2="55" stroke="#2563eb" stroke-width="2" class="dash"/>
<line x1="190" y1="425" x2="710" y2="185" stroke="#2563eb" stroke-width="2" class="dash"/>
<circle cx="170" cy="170" r="8" fill="#17212b" stroke="#17212b" stroke-width="1.5"/>
<circle cx="230" cy="150" r="8" fill="#17212b" stroke="#17212b" stroke-width="1.5"/>
<circle cx="270" cy="205" r="8" fill="#17212b" stroke="#17212b" stroke-width="1.5"/>
<circle cx="330" cy="175" r="8" fill="#17212b" stroke="#17212b" stroke-width="1.5"/>
<circle cx="365" cy="230" r="8" fill="#17212b" stroke="#17212b" stroke-width="1.5"/>
<circle cx="300" cy="260" r="8" fill="#17212b" stroke="#17212b" stroke-width="1.5"/>
<circle cx="560" cy="275" r="8" fill="#dc2626" stroke="#17212b" stroke-width="1.5"/>
<circle cx="610" cy="315" r="8" fill="#dc2626" stroke="#17212b" stroke-width="1.5"/>
<circle cx="650" cy="260" r="8" fill="#dc2626" stroke="#17212b" stroke-width="1.5"/>
<circle cx="700" cy="330" r="8" fill="#dc2626" stroke="#17212b" stroke-width="1.5"/>
<circle cx="740" cy="280" r="8" fill="#dc2626" stroke="#17212b" stroke-width="1.5"/>
<circle cx="590" cy="350" r="8" fill="#dc2626" stroke="#17212b" stroke-width="1.5"/>
<circle cx="365" cy="230" r="14" fill="none" stroke="#c2410c" stroke-width="3"/>
<circle cx="560" cy="275" r="14" fill="none" stroke="#c2410c" stroke-width="3"/>
<text x="665" y="95" class="label" text-anchor="middle">decision boundary</text>
<text x="445" y="168" class="label" text-anchor="middle" fill="#2563eb">margin</text>
<line x1="445" y1="174" x2="477" y2="237" stroke="#2563eb" stroke-width="3" />
<text x="450" y="456" class="s" text-anchor="middle">Circled samples are support vectors; they determine the boundary.</text>
</svg>